<?xml version="1.0" encoding="UTF-8"?>
<svg width="1280px" height="1280px" viewBox="0 0 1280 1280" version="1.1" xmlns="http://www.w3.org/2000/svg" xmlns:xlink="http://www.w3.org/1999/xlink">
    <!-- Generator: Sketch 49.2 (51160) - http://www.bohemiancoding.com/sketch -->
    <title>Shape</title>
    <desc>Created with Sketch.</desc>
    <defs></defs>
    <g id="Page-1" stroke="none" stroke-width="1" fill="none" fill-rule="evenodd">
        <g id="error" fill="#C5031B" fill-rule="nonzero">
            <path d="M0,640 L0,0 L640,0 L1280,0 L1280,640 L1280,1280 L640,1280 L0,1280 L0,640 Z M1196.25,636.25 L1196.25,80 L640,80 L83.75,80 L83.75,636.25 L83.75,1192.5 L640,1192.5 L1196.25,1192.5 L1196.25,636.25 Z M630.10171,958.0786 C621.34231,955.6406 616.24029,952.4177 610.10364,945.4461 C601.09109,935.2073 598.38285,920.1094 603.07491,906.2624 C606.28504,896.7887 616.78869,886.285 626.26235,883.0749 C641.61863,877.8715 656.407615,881.2076 667.600005,892.4 C683.431335,908.2313 683.431335,931.7687 667.600005,947.6 C657.245005,957.955 643.47878,961.8019 630.10171,958.0786 Z M600,516.875 L600,320 L640,320 L680.000005,320 L680.000005,516.875 L680.000005,713.75 L640,713.75 L600,713.75 L600,516.875 Z" id="Shape"></path>
        </g>
    </g>
</svg>