<?xml version="1.0" encoding="UTF-8"?>
<svg width="80px" height="80px" viewBox="0 0 80 80" version="1.1" xmlns="http://www.w3.org/2000/svg" xmlns:xlink="http://www.w3.org/1999/xlink">
    <!-- Generator: Sketch 49.3 (51167) - http://www.bohemiancoding.com/sketch -->
    <title>Artboard</title>
    <desc>Created with Sketch.</desc>
    <defs></defs>
    <g id="Artboard" stroke="none" stroke-width="1" fill="none" fill-rule="evenodd">
        <g id="noun_672685_333333" transform="translate(15.000000, 16.000000)" fill="#91CEDF" fill-rule="nonzero">
            <path d="M0,25.2175561 L0,46.3510714 C0,48.3663724 1.48083808,50 3.30747626,50 L10.7843137,50 L10.7843137,21.5686275 L3.30747626,21.5686275 C1.48083808,21.5686275 0,23.2022551 0,25.2175561 Z" id="Shape"></path>
            <path d="M50,28.2694092 C50,26.5881019 49.0887333,25.1240422 47.7365131,24.3361726 C48.5408653,23.5155213 49.0377688,22.3909456 49.0377688,21.1491341 C49.0377688,18.6366187 47.0069458,16.5997144 44.5019317,16.5997144 L30.0728954,16.5997144 L30.9930255,12.9198406 C32.0416747,8.72435117 31.0478677,4.14770612 27.9539924,1.21791987 C27.7778327,1.02845332 27.5839461,0.856766623 27.3728868,0.7061935 C27.3673472,0.701748537 27.3618076,0.696192334 27.3562679,0.691747371 L27.3546061,0.692858611 C26.7369389,0.257252235 25.9857671,0 25.1742134,0 C24.3831563,0 23.6491573,0.242806105 23.0409075,0.657298907 C22.0415609,1.27514877 21.3734833,2.37972208 21.3734833,3.64320282 L21.3734833,3.80766645 L21.3734833,9.89226521 L14.8317514,19.9789975 C14.6511599,20.2573634 14.491619,20.5473972 14.3542365,20.846321 C14.2168541,21.1452447 14.1010761,21.453614 14.0080106,21.7686508 C13.8218795,22.3987243 13.7254902,23.0554676 13.7254902,23.7194339 L13.7254902,37.9599842 L13.7254902,42.9911267 L13.7254902,44.8541219 L13.7254902,47.0588235 L17.9389217,47.0588235 L36.1016588,47.0588235 L39.8065536,47.0588235 C42.3115677,47.0588235 44.3423908,45.0219192 44.3423908,42.5094039 C44.3423908,41.5370682 44.0354961,40.6380744 43.517542,39.8985437 C45.7516689,39.6157329 47.4811369,37.7071769 47.4811369,35.3891287 C47.4811369,34.370121 47.1432203,33.4327894 46.5787335,32.6743676 C48.5436351,32.1759761 50,30.3957684 50,28.2694092 Z" id="Shape"></path>
        </g>
    </g>
</svg>