<?xml version="1.0" encoding="UTF-8"?>
<svg width="80px" height="80px" viewBox="0 0 80 80" version="1.1" xmlns="http://www.w3.org/2000/svg" xmlns:xlink="http://www.w3.org/1999/xlink">
    <!-- Generator: Sketch 49.3 (51167) - http://www.bohemiancoding.com/sketch -->
    <title>Artboard</title>
    <desc>Created with Sketch.</desc>
    <defs></defs>
    <g id="Artboard" stroke="none" stroke-width="1" fill="none" fill-rule="evenodd">
        <g id="noun_38846_333333" transform="translate(15.000000, 16.000000)">
            <path d="M14.0028479,19.9997728 C15.8301282,16.0377916 19.8267504,13.2811269 24.4550278,13.2811269 C29.0837594,13.2811269 33.0803816,16.0377916 34.9078891,19.9997728 L44,19.9997728 L44,8.91517722 C44,6.75651318 42.2501718,5 40.0987735,5 L18.7642249,5 L18.7642249,10.6887307 C18.7642249,11.4337322 18.1625511,12.0376401 17.4200552,12.0376401 C16.6777864,12.0376401 16.0761127,11.4337322 16.0761127,10.6887307 L16.0761127,5 L15.1071657,5 L15.1071657,10.6887307 C15.1071657,11.4337322 14.5052648,12.0376401 13.7632232,12.0376401 C13.0209544,12.0376401 12.4192806,11.4337322 12.4192806,10.6887307 L12.4192806,5 L11.2695363,5 L11.2695363,10.6887307 C11.2695363,11.4337322 10.6678625,12.0376401 9.92559375,12.0376401 C9.18332499,12.0376401 8.58165119,11.4337322 8.58165119,10.6887307 L8.58165119,5.01635868 C6.57993314,5.18039988 5,6.86488943 5,8.91540442 L5,20 L14.0028479,20 L14.0028479,19.9997728 Z M33.3867832,10.3988185 C33.3867832,9.47478037 34.1333675,8.72546198 35.0539352,8.72546198 L38.5554087,8.72546198 C39.4762035,8.72546198 40.2225607,9.47455317 40.2225607,10.3988185 L40.2225607,13.9127537 C40.2225607,14.8367919 39.4762035,15.5858831 38.5554087,15.5858831 L35.0539352,15.5858831 C34.1333675,15.5858831 33.3867832,14.8367919 33.3867832,13.9127537 L33.3867832,10.3988185 Z" id="Shape"></path>
            <path d="M19,25.0001148 C19,28.3084241 21.6914789,31 24.9996543,31 C28.3082906,31 31,28.3084241 31,25.0001148 C31,21.6915759 28.3082906,19 24.9996543,19 C21.6914789,19 19,21.6915759 19,25.0001148 Z" id="Shape"></path>
            <path d="M35.9390703,24 C35.9567866,24.2600339 35.9692789,24.5218768 35.9692789,24.786433 C35.9692789,31.1276427 30.8042876,36.2867157 24.4552549,36.2867157 C18.1069037,36.2867157 12.9419123,31.1276427 12.9419123,24.786433 C12.9419123,24.5218768 12.9541775,24.26026 12.9718938,24 L5,24 L5,40.1035613 C5,42.2518937 6.75005533,44 8.90099938,44 L40.0987735,44 C42.2501718,44 44,42.2518937 44,40.1035613 L44,24 L35.9390703,24 Z" id="Shape"></path>
            <path d="M40.8189872,0 L9.1807825,0 C4.11843021,0 0,4.11849512 0,9.18075464 L0,40.8192454 C0,45.8815049 4.11843021,50 9.1807825,50 L40.8187568,50 C45.8813395,50 50,45.8815049 50,40.8192454 L50,9.18075464 C50.0002303,4.11849512 45.8815698,0 40.8189872,0 Z M8.85692831,5.24132453 L8.85692831,10.9727821 C8.85692831,11.7255439 9.46709172,12.3357423 10.2198339,12.3357423 C10.972576,12.3357423 11.5827394,11.7255439 11.5827394,10.9727821 L11.5827394,5.22479545 L12.7487067,5.22479545 L12.7487067,10.9727821 C12.7487067,11.7255439 13.3588701,12.3357423 14.1116122,12.3357423 C14.8643544,12.3357423 15.4745178,11.7255439 15.4745178,10.9727821 L15.4745178,5.22479545 L16.4571365,5.22479545 L16.4571365,10.9727821 C16.4571365,11.7255439 17.0675303,12.3357423 17.8200421,12.3357423 C18.5730146,12.3357423 19.183178,11.7255439 19.183178,10.9727821 L19.183178,5.22479545 L40.8187568,5.22479545 C43.0005113,5.22479545 44.7750296,6.99937557 44.7750296,9.18075464 L44.7750296,20.3808116 L35.5546291,20.3808116 C33.7013355,16.3775609 29.6483211,13.5921817 24.9542781,13.5921817 C20.2606957,13.5921817 16.2076813,16.3775609 14.354618,20.3808116 L5.22474006,20.3808116 L5.22474006,9.18075464 C5.22474006,7.10888071 6.82696604,5.40707445 8.85692831,5.24132453 Z M30.9517996,25.2681384 C30.9517996,28.5746426 28.2614604,31.2647499 24.9545084,31.2647499 C21.648017,31.2647499 18.9579082,28.5746426 18.9579082,25.2681384 C18.9579082,21.9614046 21.648017,19.2712973 24.9545084,19.2712973 C28.2614604,19.2712973 30.9517996,21.9614046 30.9517996,25.2681384 Z M40.8189872,44.7754341 L9.1807825,44.7754341 C6.99925831,44.7754341 5.22474006,43.0006244 5.22474006,40.8194749 L5.22474006,24.4699217 L13.3091172,24.4699217 C13.2911509,24.7339278 13.2787127,24.9997704 13.2787127,25.2683679 C13.2787127,31.7064436 18.516582,36.9443246 24.9545084,36.9443246 C31.3931258,36.9443246 36.6309951,31.7064436 36.6309951,25.2683679 C36.6309951,24.9997704 36.6183266,24.7341573 36.6003602,24.4699217 L44.7750296,24.4699217 L44.7750296,40.8194749 C44.7752599,43.0003949 43.0007417,44.7754341 40.8189872,44.7754341 Z" id="Shape" fill="#5E8CAA" fill-rule="nonzero"></path>
            <path d="M35.7072036,16 L39.2927964,16 C40.2357124,16 41,15.2356682 41,14.2928299 L41,10.7074019 C41,9.76456367 40.2357124,9 39.2927964,9 L35.7072036,9 C34.7645202,9 34,9.76433184 34,10.7074019 L34,14.2928299 C34,15.2356682 34.7645202,16 35.7072036,16 Z" id="Shape" fill="#5E8CAA" fill-rule="nonzero"></path>
        </g>
    </g>
</svg>