<?xml version="1.0" encoding="UTF-8"?>
<svg width="48px" height="48px" viewBox="0 0 48 48" version="1.1" 
    xmlns="http://www.w3.org/2000/svg" 
    xmlns:xlink="http://www.w3.org/1999/xlink">
    <!-- Generator: Sketch 49.1 (51147) - http://www.bohemiancoding.com/sketch -->
    <title>Recycle</title>
    <desc>by Rivercon from the Noun Project. Created with Sketch.</desc>
    <defs></defs>
    <g id="Page-1" stroke="none" stroke-width="1" fill="none" fill-rule="evenodd">
        <g id="noun_1463627_cc" transform="translate(-2.000000, 0.000000)" fill="#000000" fill-rule="nonzero">
            <g id="Group" transform="translate(2.000000, 0.000000)">
                <path d="M43.9704208,15.5603638 C43.762413,15.5603638 43.568077,15.4295044 43.496788,15.2214966 C41.7360458,10.0652476 37.5133896,5.6433726 32.2008896,3.3943491 C27.5807724,1.4402475 22.7672958,1.4295053 18.6471787,3.3728647 C18.4030381,3.4900522 18.1003037,3.38556 17.9821396,3.1336069 C17.8639755,2.8845835 17.9713974,2.5867319 18.2213974,2.4685678 C22.5983505,0.401185 27.7018662,0.4050912 32.590538,2.4734506 C38.1608505,4.831849 42.5915146,9.4763803 44.4440536,14.8992309 C44.5329208,15.1599731 44.3932723,15.4441528 44.1315536,15.5339965 C44.0788193,15.5515747 44.0241318,15.5603638 43.9704208,15.5603638 Z" id="Shape"></path>
                <path d="M25.7428818,41.2937622 C24.8415146,41.2937622 23.9381943,41.2244263 23.0338974,41.0838013 C22.7614365,41.0408325 22.5739365,40.7849732 22.6169052,40.5125122 C22.659874,40.2390747 22.9157333,40.0525513 23.1881943,40.09552 C32.0573349,41.4851684 41.0797959,35.4666137 43.7301865,26.4031372 C43.8073349,26.1384888 44.081749,25.9851684 44.3503037,26.06427 C44.6149521,26.1414184 44.7672959,26.4187622 44.6891709,26.6843872 C42.1706161,35.298645 34.1628036,41.2937622 25.7428818,41.2937622 Z" id="Shape"></path>
                <path d="M13.9665136,37.164856 C13.8610448,37.164856 13.7555761,37.1326294 13.6657323,37.0642701 C5.2028417,30.6941529 2.911826,18.9607545 8.4508885,10.3533326 C8.6003026,10.1209107 8.9098729,10.0545045 9.1422948,10.202942 C9.3747167,10.3523561 9.4420995,10.6619264 9.2926854,10.8943483 C4.0348734,19.0642692 6.2204198,30.2088014 14.2672957,36.2654421 C14.4879988,36.4314577 14.5319441,36.7449343 14.3659285,36.9656374 C14.2672958,37.0964966 14.1178818,37.164856 13.9665136,37.164856 Z" id="Shape"></path>
                <path d="M11.8883886,18.992981 C11.6872167,18.992981 11.4977636,18.8709107 11.4215917,18.6716919 L8.5837011,11.2664194 L1.1784277,14.1043091 C0.9215918,14.2029419 0.6315527,14.0750122 0.5329199,13.8162241 C0.4342871,13.5584116 0.5631933,13.2693491 0.8210058,13.1707163 L8.6930761,10.1541147 C8.9489355,10.0564584 9.2399511,10.1834116 9.3385839,10.4422006 L12.3551855,18.31427 C12.4538183,18.5720825 12.3249121,18.861145 12.0670996,18.9597778 C12.0085058,18.9822388 11.9479589,18.992981 11.8883886,18.992981 Z" id="Shape"></path>
                <path d="M11.8883886,18.992981 C11.6872167,18.992981 11.4977636,18.8709107 11.4215917,18.6716919 L8.5837011,11.2664194 L1.1784277,14.1043091 C0.9215918,14.2029419 0.6315527,14.0750122 0.5329199,13.8162241 C0.4342871,13.5584116 0.5631933,13.2693491 0.8210058,13.1707163 L8.6930761,10.1541147 C8.9489355,10.0564584 9.2399511,10.1834116 9.3385839,10.4422006 L12.3551855,18.31427 C12.4538183,18.5720825 12.3249121,18.861145 12.0670996,18.9597778 C12.0085058,18.9822388 11.9479589,18.992981 11.8883886,18.992981 Z" id="Shape"></path>
                <path d="M44.1393661,16.1951294 C44.0817489,16.1951294 44.0241317,16.1853638 43.9694442,16.1658325 L36.0397567,13.3045053 C35.7799911,13.2107553 35.6452254,12.9236459 35.7389754,12.6638803 C35.833702,12.4050912 36.1188582,12.2742319 36.3796004,12.363099 L43.8385848,15.0554809 L46.5290145,7.5955209 C46.6237411,7.3357553 46.9079208,7.2039193 47.1696395,7.2947396 C47.4294051,7.3884896 47.5641708,7.675599 47.4704208,7.9353646 L44.6100692,15.8650511 C44.5651473,15.9890745 44.4723739,16.0916136 44.3522567,16.1472777 C44.284874,16.1795044 44.2126083,16.1951294 44.1393661,16.1951294 Z" id="Shape"></path>
                <path d="M44.1393661,16.1951294 C44.0817489,16.1951294 44.0241317,16.1853638 43.9694442,16.1658325 L36.0397567,13.3045053 C35.7799911,13.2107553 35.6452254,12.9236459 35.7389754,12.6638803 C35.833702,12.4050912 36.1188582,12.2742319 36.3796004,12.363099 L43.8385848,15.0554809 L46.5290145,7.5955209 C46.6237411,7.3357553 46.9079208,7.2039193 47.1696395,7.2947396 C47.4294051,7.3884896 47.5641708,7.675599 47.4704208,7.9353646 L44.6100692,15.8650511 C44.5651473,15.9890745 44.4723739,16.0916136 44.3522567,16.1472777 C44.284874,16.1795044 44.2126083,16.1951294 44.1393661,16.1951294 Z" id="Shape"></path>
                <path d="M28.324913,47.079895 C28.1969833,47.079895 28.0690536,47.0310669 27.9713974,46.9334106 L22.0104599,40.9734497 C21.9167099,40.8796997 21.8639755,40.7527466 21.8639755,40.6199341 C21.8639755,40.4871216 21.9167099,40.3601685 22.0104599,40.2664185 L27.9713974,34.305481 C28.1667099,34.1101685 28.4831162,34.1101685 28.6784287,34.305481 C28.8737412,34.5007935 28.8737412,34.8171998 28.6784287,35.0125123 L23.0710068,40.6199342 L28.6784287,46.2263795 C28.8737412,46.421692 28.8737412,46.7380983 28.6784287,46.9334108 C28.5807724,47.0310669 28.4528427,47.079895 28.324913,47.079895 Z" id="Shape"></path>
            </g>
        </g>
    </g>
</svg>