<?xml version="1.0" encoding="UTF-8"?>
<svg width="39px" height="37px" viewBox="0 0 39 37" version="1.1" xmlns="http://www.w3.org/2000/svg" xmlns:xlink="http://www.w3.org/1999/xlink">
    <!-- Generator: Sketch 49.2 (51160) - http://www.bohemiancoding.com/sketch -->
    <title>recycle</title>
    <desc>Created with Sketch.</desc>
    <defs></defs>
    <g id="Page-1" stroke="none" stroke-width="1" fill="none" fill-rule="evenodd">
        <g id="Artboard" transform="translate(-13.000000, -11.000000)" fill="#333333" fill-rule="nonzero">
            <g id="recycle" transform="translate(13.000000, 11.000000)">
                <path d="M35.5930281,20.2467943 C35.6126838,19.9067936 35.6257875,19.564341 35.6257875,19.2243404 C35.6257875,10.2241305 28.8785909,2.63786572 19.9320138,1.57740692 L19.400903,6.04155023 C26.0825808,6.83352292 31.1213776,12.5007455 31.1213776,19.2243404 L27.7963041,18.4720072 L32.1205376,25.3357706 L39,21.0224208 L35.5930281,20.2467943 Z M17.8128938,32.5056162 C15.4546304,32.5056162 13.1786749,31.891817 11.1627467,30.7271512 L13.477604,28.2511128 L5.35820033,28.5334931 L5.63870222,36.6362974 L8.03054391,34.077302 C10.9387547,35.9898057 14.3101008,37 17.8133032,37 C23.47248,37 28.6689311,34.4058603 32.0697606,29.8820535 L28.4666422,27.1841155 C25.9241075,30.5661413 22.0413062,32.5056162 17.8128938,32.5056162 Z M4.50440989,19.2243404 C4.50440989,14.4843552 7.08297984,10.0888658 11.1541474,7.73174582 L12.1442986,10.9670646 L15.9591243,3.80906993 L8.78769426,0 L9.81142378,3.34565554 C3.83734776,6.34885851 0,12.530986 0,19.2243404 C0,21.6501143 0.483200335,24.0043737 1.43567829,26.2217338 L5.57523098,24.4506246 C4.8647627,22.7963906 4.50440989,21.0379496 4.50440989,19.2243404 Z" id="Shape"></path>
            </g>
        </g>
    </g>
</svg>