<?xml version="1.0" encoding="UTF-8"?>
<svg width="96px" height="92px" viewBox="0 0 96 92" version="1.1" xmlns="http://www.w3.org/2000/svg" xmlns:xlink="http://www.w3.org/1999/xlink">
    <!-- Generator: Sketch 49.1 (51147) - http://www.bohemiancoding.com/sketch -->
    <title>Shape</title>
    <desc>Created with Sketch.</desc>
    <defs></defs>
    <g id="Page-1" stroke="none" stroke-width="1" fill="none" fill-rule="evenodd">
        <g id="Artboard" transform="translate(-4.000000, -2.000000)" fill="#333333" fill-rule="nonzero">
            <path d="M91.6136077,52.3433803 C91.6619908,51.4979733 91.6942461,50.6464696 91.6942461,49.8010625 C91.6942461,27.4221623 75.0857623,8.55901746 53.0634187,5.92220099 L51.7560689,17.022233 C68.2032759,18.9914624 80.6064679,33.0829348 80.6064679,49.8010625 L72.4216716,47.9303962 L83.0659387,64.9970511 L100,54.2719652 L91.6136077,52.3433803 Z M47.8471231,82.8247755 C42.0421672,82.8247755 36.4398152,81.2985719 31.4775304,78.4026463 L37.1756405,72.2460101 L17.1894162,72.948145 L17.8798824,93.0956583 L23.7674927,86.7327509 C30.9261655,91.4881656 39.2248635,94 47.848131,94 C61.7784124,94 74.5696766,87.5497068 82.9409492,76.3013221 L74.0717346,69.5929358 C67.8131877,78.0022973 58.2555229,82.8247755 47.8471231,82.8247755 Z M15.0877782,49.8010625 C15.0877782,38.0151534 21.4350273,27.0858285 31.4563629,21.2248815 L33.8936581,29.269458 L43.2839983,11.4712009 L25.6312474,2 L28.151197,10.3189273 C13.4457791,17.7863509 4,33.1581273 4,49.8010625 C4,55.8327167 5.18941621,61.6865508 7.53397732,67.1999867 L17.7236455,62.7961476 C15.9748005,58.6829171 15.0877782,54.3105775 15.0877782,49.8010625 Z" id="Shape"></path>
        </g>
    </g>
</svg>