<?xml version="1.0" encoding="UTF-8"?>
<svg width="80px" height="80px" viewBox="0 0 80 80" version="1.1" xmlns="http://www.w3.org/2000/svg" xmlns:xlink="http://www.w3.org/1999/xlink">
    <!-- Generator: Sketch 49.3 (51167) - http://www.bohemiancoding.com/sketch -->
    <title>Artboard</title>
    <desc>Created with Sketch.</desc>
    <defs></defs>
    <g id="Artboard" stroke="none" stroke-width="1" fill="none" fill-rule="evenodd">
        <g id="search" transform="translate(1.000000, 1.000000)" fill-rule="nonzero">
            <path d="M57.9647988,16 C53.2208374,16 50.2114264,21.4353108 49.4994913,21.4353108 C48.8771568,21.4353108 45.9894858,16 41.0332099,16 C36.2123089,16 32.2747527,20.0862408 32.0156901,25.0351658 C31.8705761,27.8303827 32.7480775,29.9570694 33.9839812,31.8835973 C36.4528669,35.7336508 47.2458418,45 49.515074,45 C51.835924,45 62.530533,35.766677 65.0169493,31.8835973 C66.2548008,29.9480623 67.1293805,27.8303827 66.9842665,25.034165 C66.72423,20.0862408 62.7876477,16 57.9647988,16" id="Shape" fill="#91CEDF"></path>
            <path d="M23.39482,46.7812249 C23.39482,46.7812249 16.7672847,53.4089461 14.9238708,55.2524117 C14.782818,55.3934685 14.1398119,55.2319828 13.9442835,55.1969619 C12.1932835,54.8856642 10.7214706,55.3253721 9.36736393,56.678544 L1.65031756,64.395807 C-0.550105852,66.5962921 -0.550105852,70.1645413 1.65031756,72.3650264 L5.63578825,76.3496361 C7.83718443,78.5501213 11.4053334,78.5501213 13.6047841,76.3496361 L21.3218304,68.6323732 C22.6613455,67.2928206 22.8821661,65.51356 22.5893599,63.7780757 C22.5543399,63.5650314 22.5981149,63.2313592 22.7498683,63.0786288 C25.0952356,60.7331957 31.1887158,54.6385717 31.1887158,54.6385717 C31.6702408,54.158006 32.2704447,53.9041039 32.9270697,53.9041039 C33.591477,53.9041039 34.0827298,54.1667612 34.221837,54.2484769 C38.7423355,56.9616303 43.8854118,58.3955451 49.0888003,58.3955451 C56.7173239,58.3955451 63.9508997,55.3613659 69.4587676,49.8543162 C80.8470775,38.464714 80.8470775,19.9318039 69.4587676,8.54220166 C63.9489541,3.03320633 56.6142094,0 48.8018308,0 C40.990425,0 33.6547075,3.03320633 28.1468396,8.54220166 C18.6009709,18.0883382 16.836352,32.2494622 23.753775,43.7830395 C24.2284905,44.5797669 24.3179861,45.8580328 23.39482,46.7812249 Z M32.054488,45.9475309 C22.8199083,36.712692 22.8199083,21.6867443 32.054488,12.4519054 C36.5224565,7.98478433 42.47002,5.52456021 48.8028036,5.52456021 C55.1355871,5.52456021 61.0821779,7.98478433 65.5491736,12.4519054 C70.0161693,16.9180536 72.4753516,22.8667569 72.4753516,29.1987453 C72.4753516,35.5326794 70.0161693,41.4804098 65.5491736,45.9465581 C61.0821779,50.4127063 55.1355871,52.8729305 48.8018308,52.8729305 C42.47002,52.8739033 36.5224565,50.4136791 32.054488,45.9475309 Z" id="Shape" fill="#3D3D3D"></path>
        </g>
    </g>
</svg>