<?xml version="1.0" encoding="UTF-8"?>
<svg width="80px" height="80px" viewBox="0 0 80 80" version="1.1" xmlns="http://www.w3.org/2000/svg" xmlns:xlink="http://www.w3.org/1999/xlink">
    <!-- Generator: Sketch 49.3 (51167) - http://www.bohemiancoding.com/sketch -->
    <title>Artboard</title>
    <desc>Created with Sketch.</desc>
    <defs></defs>
    <g id="Artboard" stroke="none" stroke-width="1" fill="none" fill-rule="evenodd">
        <g id="noun_22690_333333" transform="translate(9.000000, 18.000000)" fill="#5E8CAA">
            <path d="M0.0101531721,31.372549 C-0.291239536,39.7064665 6.21748849,43.1372549 6.21748849,43.1372549 C6.35933506,43.0710355 8.81600669,41.8628913 10.7843137,36.3354382 L0.0101531721,31.372549 Z" id="Shape"></path>
            <path d="M34.4718289,0 C28.4634377,0 13.0636826,2.01949246 12.5830113,21.6337583 C12.1023475,41.2480022 5.88235294,44.1132803 5.88235294,44.1132803 C28.1862761,56.0337975 56.846763,51.2755107 53.6803831,16.6036865 C53.6803831,3.77898867 40.480227,0 34.4718289,0 Z M43.0444172,9.23663542 C46.3090969,9.23663542 48.9580143,12.0082135 48.9580143,15.4240684 C48.9580143,18.8399227 46.3090969,21.6115014 43.0444172,21.6115014 C39.7797375,21.6115014 37.1308201,18.8399227 37.1308201,15.4240684 C37.1308201,12.0082135 39.7797375,9.23663542 43.0444172,9.23663542 Z" id="Shape"></path>
            <path d="M56.0214629,16.6666679 C56.3017635,20.2496127 56.2442179,23.5006158 55.8823529,26.4274954 C55.8925924,26.4394213 55.8918915,26.4586624 55.9021953,26.4705882 L61.7647059,21.4932126 L56.0214331,16.6666667 L56.0214629,16.6666679 Z" id="Shape"></path>
            <path d="M46.0784314,15.1960815 C46.0784314,16.5497172 44.9810907,17.6470588 43.6274513,17.6470588 C42.2738125,17.6470588 41.1764706,16.5497172 41.1764706,15.1960815 C41.1764706,13.8424396 42.2738125,12.745098 43.6274513,12.745098 C44.9810907,12.745098 46.0784314,13.8424396 46.0784314,15.1960815 Z" id="Shape" fill-rule="nonzero"></path>
        </g>
    </g>
</svg>